<svg width="133" height="60" viewBox="0 0 133 60" fill="none" xmlns="http://www.w3.org/2000/svg">
<path d="M34.6104 0C28.979 2.94309 28.7297 7.32249 28.7297 7.32249C28.7297 7.32249 31.7974 6.19512 34.4858 6.26016C32.9194 8.69919 30.605 10.3252 30.605 10.3252C30.605 10.3252 34.4207 10.2602 37.0495 11.3875C35.3584 12.8889 32.3557 13.3279 32.3557 13.3279C32.3557 13.3279 33.418 14.2656 34.2961 16.9539C31.6077 17.019 29.727 16.0163 29.727 16.0163C29.727 16.0163 29.9763 19.458 28.4749 23.0244C29.353 22.271 30.7893 20.4607 31.0386 18.0217C32.979 18.9593 36.4207 18.3957 36.4207 18.3957C36.4207 18.3957 35.9817 15.8916 34.9194 14.5799C37.8625 14.1409 41.2988 11.0135 41.2988 11.0135C41.2988 11.0135 38.4858 9.26287 34.7297 9.07317C36.231 7.88618 37.7974 4.62872 37.7974 4.62872C37.7974 4.62872 33.9167 4.1897 31.5427 5.19241C35.6728 -0.373985 45.7432 1.87534 47.9329 3.31707C45.8083 3.50677 42.4262 5.06775 41.4885 6.13008C49.4343 5.44173 57.1904 12.5095 59.6348 17.5772C55.4451 16.0108 47.4343 19.4526 40.9302 18.7046C42.7459 19.5827 44.6213 21.6477 45.3747 23.084C42.6863 23.7073 38.1822 23.7724 35.6131 23.084C35.9871 23.897 36.7405 26.4011 36.8652 27.9621C33.8625 28.0867 27.4776 25.897 25.1633 23.084C28.605 14.9485 22.2852 12.6341 22.0955 8.44444C22.0305 5.50135 25.9112 1.12195 34.6104 0Z" fill="#FFC600"/>
<path d="M59.5103 48.6125C59.635 48.1735 59.4453 47.6098 59.0117 47.4852C57.1959 46.9215 55.8843 44.6722 56.448 41.6044C56.9466 38.5367 57.9493 33.6586 55.9493 31.1545C55.9493 31.1545 47.9818 27.2033 40.5347 23.5773C38.7244 23.5719 36.952 23.4472 35.6133 23.0841C35.9873 23.8971 36.7407 26.4012 36.8653 27.9621C33.8626 28.0868 27.4832 25.8971 25.1634 23.0841C26.2258 20.5204 26.3613 18.5692 26.0198 16.9594C20.952 15.9567 14.3992 18.206 13.1472 23.7724C10.3342 21.7074 3.75963 21.5177 1.13632 26.3361C-0.988337 30.2169 0.447977 37.2846 0.82196 39.16C1.19594 40.851 1.57535 42.1627 2.19865 42.851C2.82196 43.5394 4.13903 43.8537 5.32603 43.9784C6.07941 47.6694 10.0198 47.5448 8.89242 50.7968C10.7081 50.1085 11.3314 47.5448 10.5184 45.8537C11.2068 45.8537 12.3938 46.7318 12.0198 48.2928C14.2095 47.8537 13.5211 44.6017 14.7732 44.1031C15.4615 48.9811 20.28 50.5475 18.9033 53.9892C19.9656 53.9892 21.2176 53.3009 21.2827 52.1139C21.2827 52.1139 23.158 55.1166 22.5943 56.683L20.3396 60.0001H26.4697L27.158 57.122C27.158 57.122 25.7217 53.1166 25.8464 50.8022C26.5997 50.6776 27.6621 51.6153 27.597 52.4933C29.7867 50.8673 26.2854 47.7995 27.158 45.3009C27.597 47.5556 29.7217 47.9892 29.9114 49.8049C35.2935 48.618 41.0496 44.1735 44.8653 44.1735C44.8653 44.1735 47.429 49.7399 54.1228 49.9947C55.2501 51.9947 55.9981 55.561 55.6241 56.2494L53.4344 59.9404H59.3802L60.2583 57.3117C59.3802 55.2467 58.7569 51.431 59.5049 48.6125H59.5103ZM9.08212 32.347C8.95746 32.347 8.6431 32.4716 8.32874 32.4716C7.51573 32.4716 6.89242 31.8483 6.89242 31.0353C6.89242 30.2223 7.51573 29.8483 7.83009 29.7237C9.70543 29.0353 11.8951 27.5339 9.83009 24.4662C12.7732 24.7155 14.5835 30.5367 9.0767 32.347H9.08212ZM5.83009 33.6586C5.45611 34.6613 4.01437 35.0949 2.887 34.5367C3.32603 33.2846 4.95204 33.0353 5.83009 33.6586Z" fill="#382E2C"/>
<path d="M85.0549 14.464C85.0549 17.1149 84.8839 19.3811 80.6937 19.3811C76.5035 19.3811 76.3325 17.1149 76.3325 14.464C76.3325 14.2075 76.3325 8.13599 76.3325 8.13599H79.24V13.6944C79.24 16.3881 79.1972 16.8584 80.6937 16.8584C82.1902 16.8584 82.1475 16.3881 82.1475 13.6944V8.13599H85.0549C85.0549 8.13599 85.0549 14.2075 85.0549 14.464Z" fill="#382E2C"/>
<path d="M131.745 12.9247C131.745 13.1813 131.745 14.2502 131.745 14.5067C131.745 17.1577 131.574 19.4238 127.213 19.4238C122.852 19.4238 122.681 17.1577 122.681 14.5067C122.681 14.2502 122.681 13.224 122.681 12.9247C122.681 10.2738 122.852 8.00769 127.213 8.00769C131.574 8.00769 131.745 10.2311 131.745 12.9247ZM125.588 12.9675C125.588 13.1813 125.588 14.1647 125.588 14.3785C125.588 16.4736 125.674 16.8156 127.213 16.8156C128.795 16.8156 128.838 16.4736 128.838 14.3785C128.838 14.1647 128.838 13.1813 128.838 12.9247C128.838 10.8296 128.752 10.4876 127.213 10.4876C125.674 10.5303 125.588 10.8724 125.588 12.9675Z" fill="#382E2C"/>
<path d="M94.1191 41.9568V21.9038H99.3355V41.9568H94.1191Z" fill="#382E2C"/>
<path d="M88.0479 59.7864V44.736H91.9815V59.7864H88.0479Z" fill="#382E2C"/>
<path d="M119.218 51.406C119.218 51.406 116.909 51.406 115.541 51.406C112.676 51.406 112.505 54.3563 112.505 54.3563H115.369V55.0831C115.284 56.2376 114.643 56.4941 113.317 56.4941C111.179 56.4941 111.094 56.0238 111.094 53.2018C111.094 52.9025 111.094 51.5771 111.094 51.2778C111.094 48.4131 111.179 47.9855 113.317 47.9855C114.814 47.9855 115.156 48.2848 115.241 49.7385L119.004 48.3703C118.619 46.1469 117.379 44.5649 113.317 44.5649C107.417 44.5649 107.16 47.6007 107.16 51.1923C107.16 51.5343 107.16 52.9453 107.16 53.2874C107.16 56.8789 107.417 59.9147 113.317 59.9147C116.909 59.9147 118.362 58.632 118.918 56.8362C119.346 55.468 118.79 53.2874 119.218 51.406Z" fill="#382E2C"/>
<path d="M101.602 44.736V51.8764L98.1814 44.736H93.3926C93.3926 44.736 93.9912 45.7194 93.9912 47.4296V59.7864H97.9248V52.646L100.961 58.974C101.217 59.5298 101.602 59.7864 102.286 59.7864H105.536V44.736H101.602Z" fill="#382E2C"/>
<path d="M126.101 50.2943C124.605 50.0805 124.263 49.824 124.263 49.1826C124.263 48.413 124.691 47.9427 125.845 47.9427C127.085 47.9427 127.384 48.1137 127.812 49.2681L131.532 47.8999C131.104 45.5055 129.608 44.4794 125.973 44.4794C121.612 44.4794 120.372 46.3179 120.372 49.1399C120.372 52.1329 121.698 53.4156 126.401 54.0569C127.512 54.1852 127.983 54.4845 127.983 55.2969C127.983 56.1093 127.641 56.5368 126.358 56.5368C124.99 56.5368 124.776 56.1948 124.391 55.0403L120.415 56.4941C120.928 58.974 122.681 60.0001 126.059 60.0001C130.292 60.0001 131.874 58.0333 131.874 55.3824C131.874 52.2611 130.163 50.9357 126.101 50.2943Z" fill="#382E2C"/>
<path d="M132.258 30.669C132.258 25.9657 131.916 21.9038 123.921 21.9038H116.267C116.267 21.9038 116.78 22.3314 116.78 25.0251V41.9568H123.921C131.959 41.9568 132.258 37.8949 132.258 33.2344C132.258 32.8068 132.258 32.3793 132.258 31.9517C132.258 31.5241 132.258 31.0965 132.258 30.669ZM127.042 33.3627C127.042 36.9115 126.871 37.3818 123.921 37.3818H121.997V28.0608C121.997 26.9064 121.312 26.4788 121.312 26.4788H123.921C126.914 26.4788 127.042 26.9919 127.042 30.5407C127.042 30.9683 127.042 32.9351 127.042 33.3627Z" fill="#382E2C"/>
<path d="M110.581 37.3818H107.246V21.9038H102.029V41.9568H115.027V36.4412C115.027 36.4412 113.916 37.3818 110.581 37.3818Z" fill="#382E2C"/>
<path d="M119.303 16.7301H117.465V8.13599H114.557V19.2528H121.783V16.1743C121.783 16.1743 121.184 16.7301 119.303 16.7301Z" fill="#382E2C"/>
<path d="M73.0827 13.3097C74.0661 13.0959 74.5792 12.4973 74.5792 10.7443C74.5792 8.34993 73.2538 8.09338 70.7739 8.09338H66.0278C66.0278 8.09338 66.4982 8.64922 66.4982 10.3595V19.2102H70.6028C73.4248 19.2102 74.9213 18.9536 74.9213 16.2172C74.9213 14.2076 74.2799 13.5235 73.0827 13.3097ZM69.0636 10.5733H70.1325C71.4152 10.5733 71.7573 10.5733 71.7573 11.4712C71.7573 12.198 71.5435 12.3263 70.7311 12.3691H69.3629V11.3429C69.3629 10.7443 69.0636 10.5733 69.0636 10.5733ZM70.0042 16.8158H69.4056V14.4642H70.7311C71.7573 14.4642 72.0138 14.5924 72.0138 15.6614C72.0138 16.9013 71.629 16.8158 70.0042 16.8158Z" fill="#382E2C"/>
<path d="M109.854 8.13599H105.407C105.407 8.13599 105.792 9.07664 105.578 9.76075L102.628 19.2528H105.621L106.348 16.6019H109.555L110.281 19.2528H113.274L109.854 8.13599ZM106.989 14.2075L107.973 10.7869L108.956 14.2075H106.989Z" fill="#382E2C"/>
<path d="M87.0216 21.9038L84.4562 35.7143L82.2755 23.3148C82.0618 22.2031 81.2494 21.9466 80.608 21.9466H76.4606C77.1875 23.272 76.2041 24.8113 74.0235 35.757L71.4581 21.9466H65.2583C65.2583 21.9466 66.2845 22.93 66.712 24.5975L70.1753 41.9996H75.8193C76.8882 41.9996 77.4868 41.0162 77.6578 40.2038L79.2826 31.7379L81.2921 42.0423H86.9788C87.9195 42.0423 88.5608 41.2727 88.7318 40.3748L92.3662 21.9893H87.0216V21.9038Z" fill="#382E2C"/>
<path d="M82.6603 44.736L80.7362 55.0831L79.1115 45.7621C78.9832 44.907 78.3418 44.736 77.8715 44.736H74.7503C75.3061 45.7621 74.5365 46.8738 72.9117 55.0831L70.9877 44.736H66.3271C66.3271 44.736 67.0968 45.4628 67.3961 46.7455L69.9615 59.7864H74.1944C75.0068 59.7864 75.4344 59.0595 75.5626 58.4182L76.8026 52.0474L78.2991 59.7864H82.5748C83.2589 59.7864 83.772 59.1878 83.9002 58.5464L86.6367 44.736H82.6603Z" fill="#382E2C"/>
<path d="M95.915 8.13599V19.2528H98.8225V15.0626H100.362C101.431 15.0626 101.858 14.464 102.371 12.5399H98.7798V10.6586H101.987C102.927 10.6586 103.355 11.0435 103.355 11.0435V8.13599H95.915Z" fill="#382E2C"/>
<path d="M86.8931 8.13599V19.2528H89.8005V15.0626H91.3398C92.4087 15.0626 92.8363 14.464 93.3494 12.5399H89.8005V10.6586H93.0073C93.948 10.6586 94.3755 11.0435 94.3755 11.0435V8.13599H86.8931Z" fill="#382E2C"/>
</svg>
