<?xml version="1.0" encoding="UTF-8" standalone="no"?>
<!-- Created with Inkscape (http://www.inkscape.org/) -->

<svg
   xmlns:dc="http://purl.org/dc/elements/1.1/"
   xmlns:cc="http://creativecommons.org/ns#"
   xmlns:rdf="http://www.w3.org/1999/02/22-rdf-syntax-ns#"
   xmlns:svg="http://www.w3.org/2000/svg"
   xmlns="http://www.w3.org/2000/svg"
   xmlns:sodipodi="http://sodipodi.sourceforge.net/DTD/sodipodi-0.dtd"
   xmlns:inkscape="http://www.inkscape.org/namespaces/inkscape"
   version="1.1"
   id="svg1336"
   xml:space="preserve"
   width="372"
   height="169.33333"
   viewBox="0 0 372 169.33333"
   sodipodi:docname="Signature.294.svg"
   inkscape:version="0.92.2 5c3e80d, 2017-08-06"><metadata
     id="metadata1342"><rdf:RDF><cc:Work
         rdf:about=""><dc:format>image/svg+xml</dc:format><dc:type
           rdf:resource="http://purl.org/dc/dcmitype/StillImage" /><dc:title></dc:title></cc:Work></rdf:RDF></metadata><defs
     id="defs1340"><clipPath
       clipPathUnits="userSpaceOnUse"
       id="clipPath1352"><path
         d="M 0.06,126.928 H 278.961 V 0.06 H 0.06 Z"
         id="path1350"
         inkscape:connector-curvature="0" /></clipPath></defs><sodipodi:namedview
     pagecolor="#ffffff"
     bordercolor="#666666"
     borderopacity="1"
     objecttolerance="10"
     gridtolerance="10"
     guidetolerance="10"
     inkscape:pageopacity="0"
     inkscape:pageshadow="2"
     inkscape:window-width="1277"
     inkscape:window-height="761"
     id="namedview1338"
     showgrid="false"
     inkscape:zoom="2.4489247"
     inkscape:cx="136.9989"
     inkscape:cy="96.916939"
     inkscape:window-x="0"
     inkscape:window-y="0"
     inkscape:window-maximized="0"
     inkscape:current-layer="g1344" /><g
     id="g1344"
     inkscape:groupmode="layer"
     inkscape:label="Signature.294"
     transform="matrix(1.3333333,0,0,-1.3333333,0,169.33333)"><g
       id="g1346"><g
         id="g1348"
         clip-path="url(#clipPath1352)"><path
           d="m 248.581,78.554 c -0.913,0 -2.655,0.978 -3.891,1.796 4.764,9.536 4.658,11.422 6.385,12.781 2.258,-1.514 2.728,-2.026 2.728,-5.552 0,-4.151 -2.396,-9.025 -5.222,-9.025 z m -66.873,-2.081 c -0.635,1.999 3.908,8.839 6.603,9.67 1.258,0.349 2.025,-0.177 2.295,-0.638 0.805,-1.426 -0.703,-4.292 -2.617,-6.403 -4.278,-4.162 -6.145,-3.026 -6.281,-2.629 z m -65.283,-6.65 -0.032,0.093 v 0.071 c 0,3.432 5.224,16.076 7.092,18.669 0.546,0.707 1.238,0.439 1.498,0.264 0.33,-0.264 1.215,-0.948 -1.1,-7.699 -0.029,-0.117 -4.205,-12.135 -6.556,-12.145 -0.194,0 -0.66,0.063 -0.902,0.747 z m 150.189,21.021 c 0,-7.979 -4.522,-14.2 -9.594,-14.592 3.195,4.449 4.117,5.979 4.855,11.558 1.702,13.059 -1.744,13 -3.324,20.177 0,0 1.871,7.026 -1.424,6.386 -13.759,-2.588 -4.128,-6.842 -23.724,-37.457 -3.383,-5.357 -7.932,-6.966 -8.32,-6.911 -6.856,1.203 5.953,12.584 6.427,16.407 1.086,8.721 -1.656,13.475 -3.793,13.276 -5.008,-0.476 -9.269,-3.58 -13.16,-3.346 0,0 2.354,3.564 -1.789,3.564 -8.301,0 -13.039,-14.957 -13.039,-18.969 0,-2.011 1.596,-3.688 1.596,-4.246 0,-2.369 -7.877,-15.935 -13.946,-15.935 -3.511,0 -4.019,4.078 -4.019,4.757 0,2.692 16.14,9.868 16.14,23.04 0,3.346 -1.462,7.789 -5.945,7.789 -8.449,0 -16.846,-8.27 -19.627,-13.711 -7.713,-14.834 0.422,-16.886 -8.353,-19.976 0,0 -4.032,-1.175 -2.631,3.333 0.512,2.703 2.43,4.913 3.228,10.264 1.287,8.963 -2.047,8.71 -5.609,8.485 -7.945,-0.536 -9.916,-15.99 -9.916,-20.362 0,-2.1 0,-3.369 0,-5.483 0,-1.649 -3.576,-9.026 -6.848,-9.132 -1.517,-0.029 -1.949,5.455 -1.949,6.74 0,3.476 8.061,10.863 8.061,21.584 0,3.417 -4.178,3.804 -6.877,3.804 -9.495,0 -10.906,-24.921 -10.906,-24.921 0,-10.448 -9.239,-12.675 -9.336,-12.675 -4.473,0 -5.141,11.019 -5.141,11.019 -0.228,5.705 14.946,12.539 14.946,42.938 0,3.192 -1.413,9.183 -4.776,8.579 -10.877,-1.92 -21.092,-39.641 -20.128,-52.686 -0.964,-2.479 -9.191,-13.502 -12.302,-13.502 -1.534,0 -1.455,1.278 -1.455,3.058 0,7.434 9.232,17.348 9.232,21.586 0,4.246 -5.526,10.511 -5.958,10.511 -5.276,0 -13.003,-17.628 -14.42,-23.56 -1.189,-4.987 -8.303,-15.422 -10.926,-14.464 -4.708,1.714 8.292,17.205 10.205,21.577 1.662,3.801 1.115,6.488 -3.559,7.309 C 63.333,69.303 62.156,47.49 60.72,43.218 60.569,42.723 40.303,16.658 31.293,16.658 c -4.722,0 -12.015,1.148 -11.369,17.563 0.991,25.064 25.368,55.475 31.057,56.437 C 54.477,91.249 50.069,72.834 43.658,68.604 33.198,61.724 20.634,46.772 30.366,40.843 45.185,31.805 55.984,61.48 55.984,61.48 73.777,97.065 61.153,105.015 54.314,105.015 38.558,105.015 0,58.422 0,29.452 0,11.45 11.852,0 22.344,0 43.002,0 55.51,24.472 61.618,30.148 c 1.691,-1.714 5.524,-7.332 11.407,-7.332 6.858,0 6.91,9.483 10.506,11.874 0.914,-2.391 2.423,-8.658 8.227,-8.658 9.352,0 10.23,11.02 15.973,14.147 1.358,-7.02 5.788,-10.031 10.957,-10.031 7.853,0 12.291,7.059 15.807,13.312 2.959,-2.279 3.548,-5.216 7.935,-5.564 9.553,-0.76 14.61,15.282 15.049,15.512 0,0 3.135,-1.362 4.123,-1.362 5.256,0 9.42,5.623 10.127,4.921 0.236,-0.217 3.869,-6.577 8.068,-7.579 17.526,-4.183 28.457,21.109 31.071,28.934 0.119,0.333 4.172,2.013 6.174,2.851 -1.42,-4.04 -5.92,-11.211 -4.274,-19.449 0.949,-4.757 4.274,-8.067 9.982,-7.399 8.034,0.931 12.934,14.19 14.684,14.497 3.795,0.752 5.807,-6.383 11.863,-6.383 8.303,0 22.334,11.069 22.334,20.653 0,1.234 -1.224,9.948 -5.017,7.752 z m -33.334,9.6 c 10.32,0.41 15.07,12.518 15.07,18.669 0,3.44 -1.596,7.815 -5.021,7.815 -4.248,0 -10.51,-6.625 -10.51,-14.166 0,-5.026 2.306,-5.628 2.246,-6.447 -0.24,-3.075 -6.732,-6.076 -1.785,-5.871"
           style="fill:#155195;fill-opacity:1;fill-rule:nonzero;stroke:none"
           id="path1354"
           inkscape:connector-curvature="0" /></g></g><path
       d="m 275.884,74.887 h -0.743 v -1.014 h 0.762 c 0.386,0 0.593,0.207 0.593,0.503 0,0.342 -0.235,0.511 -0.612,0.511 z m 0.638,-1.543 0.844,-1.235 h -0.888 l -0.736,1.11 h -0.601 v -1.11 h -0.762 v 3.451 h 1.533 c 0.825,0 1.354,-0.422 1.354,-1.138 0,-0.567 -0.304,-0.915 -0.744,-1.078 z m -0.798,3.284 c -1.641,0 -2.878,-1.3 -2.878,-2.898 0,-1.595 1.228,-2.877 2.861,-2.877 1.641,0 2.877,1.3 2.877,2.894 0,1.598 -1.227,2.881 -2.86,2.881 z m -0.017,-6.135 c -1.821,0 -3.238,1.462 -3.238,3.237 0,1.776 1.436,3.258 3.255,3.258 1.82,0 3.237,-1.464 3.237,-3.241 0,-1.774 -1.435,-3.254 -3.254,-3.254"
       style="fill:#155195;fill-opacity:1;fill-rule:nonzero;stroke:none"
       id="path1356"
       inkscape:connector-curvature="0" /></g></svg>