<?xml version="1.0" encoding="UTF-8" standalone="no"?>
<svg
   xmlns:dc="http://purl.org/dc/elements/1.1/"
   xmlns:cc="http://creativecommons.org/ns#"
   xmlns:rdf="http://www.w3.org/1999/02/22-rdf-syntax-ns#"
   xmlns:svg="http://www.w3.org/2000/svg"
   xmlns="http://www.w3.org/2000/svg"
   xmlns:sodipodi="http://sodipodi.sourceforge.net/DTD/sodipodi-0.dtd"
   xmlns:inkscape="http://www.inkscape.org/namespaces/inkscape"
   width="151.52699"
   height="100.08712"
   enable-background="new 0 0 200 27.769"
   version="1.1"
   viewBox="0 0 151.52699 100.08712"
   xml:space="preserve"
   id="svg839"
   sodipodi:docname="State Farm symbol.svg"
   inkscape:version="0.92.4 (5da689c313, 2019-01-14)"><metadata
   id="metadata845"><rdf:RDF><cc:Work
       rdf:about=""><dc:format>image/svg+xml</dc:format><dc:type
         rdf:resource="http://purl.org/dc/dcmitype/StillImage" /><dc:title></dc:title></cc:Work></rdf:RDF></metadata><defs
   id="defs843" /><sodipodi:namedview
   pagecolor="#ffffff"
   bordercolor="#666666"
   borderopacity="1"
   objecttolerance="10"
   gridtolerance="10"
   guidetolerance="10"
   inkscape:pageopacity="0"
   inkscape:pageshadow="2"
   inkscape:window-width="1920"
   inkscape:window-height="1027"
   id="namedview841"
   showgrid="false"
   fit-margin-top="0"
   fit-margin-left="0"
   fit-margin-right="0"
   fit-margin-bottom="0"
   inkscape:zoom="2.0777122"
   inkscape:cx="346.53455"
   inkscape:cy="50.042082"
   inkscape:window-x="-8"
   inkscape:window-y="-8"
   inkscape:window-maximized="1"
   inkscape:current-layer="svg839" />


<g
   transform="translate(110.34955,15.32504)"
   id="g837"><g
     id="g835"
     style="fill:#eb1d27"><path
       d="m 2.7526,41.376 c -7.6502,0 -14.472,1.8625 -19.318,4.8071 -4.8686,2.958 -7.7259,6.9223 -7.7259,11.196 -3e-6,4.2629 2.8389,8.2878 7.7043,11.279 4.8352,2.9726 11.636,4.8845 19.286,4.8827 7.6503,-0.0018 14.522,-1.9165 19.437,-4.8972 4.9191,-2.9832 7.8304,-7.0016 7.8304,-11.265 3e-6,-4.2449 -2.8974,-8.2193 -7.8052,-11.182 -4.9009,-2.9582 -11.755,-4.8215 -19.408,-4.8215 z m -74.87,0 c -7.6574,0 -14.471,1.8588 -19.326,4.8071 -4.8709,2.9579 -7.7367,6.9223 -7.7367,11.185 0,4.2774 2.8497,8.3022 7.7115,11.293 4.8316,2.9726 11.636,4.8846 19.293,4.8827 7.6575,-0.0018 14.521,-1.9181 19.43,-4.8972 4.9181,-2.9848 7.8394,-7.0016 7.8376,-11.265 -0.0018,-4.2486 -2.9092,-8.2213 -7.816,-11.185 -4.8947,-2.9566 -11.744,-4.8215 -19.394,-4.8215 z m 37.466,-13.34 c 7.643,0 14.504,-1.9044 19.419,-4.8864 4.9264,-2.989 7.8448,-7.0124 7.8448,-11.265 0,-4.263 -2.8983,-8.2502 -7.8052,-11.21 -4.8947,-2.953 -11.74,-4.8287 -19.405,-4.8287 -7.6503,0 -14.462,1.872 -19.322,4.8287 -4.8658,2.9602 -7.7331,6.9367 -7.7331,11.2 0,4.2738 2.863,8.2887 7.7079,11.275 4.8413,2.9844 11.639,4.8864 19.293,4.8864 z m 0.01985,-43.361 c -21.329,0.0018 -38.332,12.03 -38.332,27.161 0,7.5313 4.2125,14.373 11.081,19.324 -3.2359,-0.60899 -6.6323,-0.94592 -10.135,-0.94592 -21.329,0 -38.332,12.045 -38.332,27.161 0,15.106 16.906,27.387 38.242,27.387 18.158,0 33.377,-8.8917 37.521,-20.855 4.0395,11.964 18.999,20.855 37.161,20.855 21.333,0 38.603,-12.277 38.603,-27.387 0,-15.117 -17.191,-27.161 -38.512,-27.161 -3.4594,0 -6.78,0.3063 -9.9547,0.90088 6.9367,-4.9512 11.171,-11.758 11.171,-19.279 0,-15.131 -17.18,-27.163 -38.512,-27.161 z m 0.04504,6.9818 c 8.8862,0 17.129,2.3162 23.243,6.6214 3.0612,2.1559 8.3164,6.7656 8.2881,13.558 -0.047356,11.359 -14.682,20.388 -31.666,20.405 -8.8214,0.0086 -16.971,-2.3253 -23.017,-6.6665 -5.2614,-3.7775 -8.2538,-8.6538 -8.243,-13.738 0.01444,-6.8143 5.2128,-11.409 8.243,-13.558 6.0723,-4.3078 14.295,-6.6214 23.153,-6.6214 z m -37.431,45.494 c 8.8899,-2e-6 17.127,2.3612 23.243,6.6665 3.0623,2.1558 8.3615,6.7584 8.3331,13.558 -0.04731,11.344 -14.686,20.388 -31.666,20.405 -8.8322,0.0086 -17,-2.3601 -23.062,-6.7115 -5.2383,-3.76 -8.2553,-8.6196 -8.243,-13.693 0.0165,-6.8143 5.2148,-11.462 8.243,-13.603 6.0706,-4.2915 14.291,-6.6214 23.153,-6.6214 z m 74.683,0 c 8.8899,-2e-6 17.157,2.3572 23.288,6.6665 3.0615,2.1518 8.3137,6.7692 8.2881,13.558 -0.04283,11.344 -14.682,20.388 -31.666,20.405 -8.8214,0.0086 -17.004,-2.3644 -23.062,-6.7115 -5.2461,-3.7644 -8.2522,-8.6196 -8.243,-13.693 0.01239,-6.8142 5.2046,-11.451 8.243,-13.603 6.0568,-4.2906 14.295,-6.6214 23.153,-6.6214 z m -27.387,1.1261 c -4.7242,3.4089 -8.225,7.7241 -9.8646,12.567 -1.672,-4.8179 -5.126,-9.1169 -9.8646,-12.522 3.1098,0.58016 6.3674,0.90088 9.7295,0.90088 3.4594,0 6.8142,-0.34774 9.9997,-0.94592 z"
       id="path831"
       inkscape:connector-curvature="0" /></g></g></svg>