<svg xmlns="http://www.w3.org/2000/svg" viewBox="0 0 12 14" class="w-6 h-6" aria-hidden="true" style="fill: red; " preserveAspectRatio="xMinYMid meet">
  <path d="M7.039 10.305v.992c-.008 2.203-.008 2.281-.047 2.383-.062.164-.203.273-.398.312-.563.094-2.32-.555-2.687-.992a.55.55 0 0 1-.133-.281.45.45 0 0 1 .031-.203c.039-.109.109-.195 1.68-2.055 0 0 .008 0 .469-.547.156-.195.438-.258.695-.164.258.102.398.32.391.555zM5.875 8.344c-.016.273-.172.477-.406.547l-.937.305c-2.102.672-2.172.688-2.281.688a.51.51 0 0 1-.422-.281c-.062-.125-.109-.336-.133-.586-.086-.766.016-1.914.242-2.273.109-.172.266-.258.437-.25.117 0 .211.047 2.477.969 0 0-.008.008.656.266a.61.61 0 0 1 .367.617zm6.453 2.32c-.078.563-1.242 2.039-1.773 2.25-.18.07-.359.055-.492-.055-.094-.07-.187-.211-1.438-2.242l-.367-.602c-.141-.219-.117-.5.062-.719a.58.58 0 0 1 .648-.203s.008.008.93.312c2.102.688 2.172.711 2.258.781.141.109.203.273.172.477zm-5.25-4.937c.039.813-.305.914-.422.953-.109.031-.453.133-.891-.555a931 931 0 0 1-2.953-4.672.51.51 0 0 1 .148-.484C3.39.524 5.726-.133 6.335.024a.49.49 0 0 1 .383.352c.031.195.312 4.406.359 5.352zm5.172.843a.49.49 0 0 1-.203.461c-.094.062-.187.094-2.57.672a8 8 0 0 0-.711.18l.008-.016c-.234.062-.5-.047-.648-.281s-.141-.492 0-.68c0 0 .008-.008.586-.797 1.281-1.75 1.344-1.836 1.438-1.898.148-.102.328-.102.508-.016.508.242 1.531 1.766 1.594 2.352v.023z"></path>
</svg>